<svg aria-hidden="true" style="position: absolute; width: 0; height: 0; overflow: hidden;" version="1.1" xmlns="http://www.w3.org/2000/svg" xmlns:xlink="http://www.w3.org/1999/xlink">
<defs>
<symbol id="logo" viewBox="6 7.6 18.2 22.9">

<path fill="#0d7d4b" style="fill: var(--color2, #0d7d4b)" d="M16.225 8.395c1.809-0.054 3.645 0.009 5.456-0.016 0.631-0.009 1.098 0.104 1.508 0.6 0.455 0.551 0.522 1.066 0.51 1.759-0.013 0.746 0.021 1.5-0.049 2.242-0.098 1.153-0.526 2.253-1.231 3.17-1.676 2.177-3.576 2.145-5.997 2.242-1.039 0.042-2.615 0.874-3.42 1.542-0.057-0.528-0.035-1.078-0.023-1.597-0.002-1.995 1.45-3.838 3.39-4.3 1.371-0.327 1.703 0.084 1.727-1.689-0.382-0.001-0.763 0.033-1.139 0.102-1.879 0.339-3.397 1.304-4.488 2.873-1.045 1.503-1.13 2.981-1.132 4.732l0.006 2.553-0.020 7.275c-0.893-0.275-1.531-0.595-2.226-1.22-1.325-1.197-2.237-2.941-2.265-4.744-0.029-1.829 0.004-3.653-0.009-5.482-0.004-0.551-0.010-1.127 0.036-1.675 0.186-2.019 1.039-3.919 2.425-5.4 1.349-1.463 3.177-2.419 5.13-2.805 0.573-0.113 1.233-0.139 1.813-0.163z"></path>
<path fill="#f88430" style="fill: var(--color3, #f88430)" d="M23.524 17.292c0.058 0.103 0.003 0.815-0.010 0.982-0.055 0.688-0.161 1.351-0.368 2.009-0.636 2.018-2.278 3.732-4.356 4.25-0.728 0.181-1.181 0.138-1.91 0.194-1.043 0.081-2.211 0.491-3.094 1.053-0.302 0.192-0.646 0.493-0.922 0.726l-0.041-0.050c-0.040-0.337-0.006-0.715-0.012-1.055-0.031-1.682 0.057-2.982 1.301-4.26 0.45-0.472 0.99-0.849 1.588-1.11 1.744-0.763 2.895-0.226 4.686-0.817 0.833-0.271 1.611-0.689 2.295-1.236 0.288-0.226 0.545-0.472 0.844-0.686z"></path>
<path fill="#c7d2cb" style="fill: var(--color4, #c7d2cb)" d="M23.489 23.080l0.035 0.052c-0.208 3.582-2.744 6.475-6.336 6.939-0.662 0.086-1.387 0.057-2.057 0.057-0.709 0.004-1.419 0.001-2.128-0.008l-0.035-0.059c-0.023-0.571 0.213-1.178 0.489-1.664 0.386-0.681 0.659-0.97 1.286-1.389 1.195-0.798 2.072-0.676 3.394-0.8 0.514-0.048 1.022-0.148 1.516-0.297 1.358-0.413 3.171-1.584 3.836-2.83z"></path>
</symbol>
<symbol id="icon-package-layers" viewBox="0 0 24 24">
<path d="M4 7.5 12 3l8 4.5-8 4.5L4 7.5Z" fill="none" stroke="currentColor" stroke-width="1.8" stroke-linecap="round" stroke-linejoin="round"></path>
<path d="M4 12 12 16.5 20 12" fill="none" stroke="currentColor" stroke-width="1.8" stroke-linecap="round" stroke-linejoin="round"></path>
<path d="M4 16.5 12 21l8-4.5" fill="none" stroke="currentColor" stroke-width="1.8" stroke-linecap="round" stroke-linejoin="round"></path>
</symbol>
<symbol id="icon-support" viewBox="0 0 24 24">
<path d="M5 12a7 7 0 0 1 14 0" fill="none" stroke="currentColor" stroke-width="1.8" stroke-linecap="round"></path>
<path d="M5 12v3.2a2 2 0 0 0 2 2h1v-6H7a2 2 0 0 0-2 2Z" fill="none" stroke="currentColor" stroke-width="1.8" stroke-linejoin="round"></path>
<path d="M19 12v3.2a2 2 0 0 1-2 2h-1v-6h1a2 2 0 0 1 2 2Z" fill="none" stroke="currentColor" stroke-width="1.8" stroke-linejoin="round"></path>
<path d="M16 17.2c-.7 1.4-2 2.1-4 2.1h-1.2" fill="none" stroke="currentColor" stroke-width="1.8" stroke-linecap="round"></path>
</symbol>
<symbol id="icon-shield-check" viewBox="0 0 24 24">
<path d="M12 21s7-3.4 7-10.2V5.2L12 3 5 5.2v5.6C5 17.6 12 21 12 21Z" fill="none" stroke="currentColor" stroke-width="1.8" stroke-linecap="round" stroke-linejoin="round"></path>
<path d="m8.8 12.1 2.1 2.1 4.5-4.7" fill="none" stroke="currentColor" stroke-width="1.8" stroke-linecap="round" stroke-linejoin="round"></path>
</symbol>
<symbol id="icon-truck-route" viewBox="0 0 24 24">
<path d="M3.5 6h10.2v9.2H3.5V6Z" fill="none" stroke="currentColor" stroke-width="1.8" stroke-linejoin="round"></path>
<path d="M13.7 9h3.2l3.6 3.5v2.7h-6.8V9Z" fill="none" stroke="currentColor" stroke-width="1.8" stroke-linejoin="round"></path>
<path d="M7.2 18.5a1.8 1.8 0 1 0 0-3.6 1.8 1.8 0 0 0 0 3.6ZM17.5 18.5a1.8 1.8 0 1 0 0-3.6 1.8 1.8 0 0 0 0 3.6Z" fill="none" stroke="currentColor" stroke-width="1.8"></path>
<path d="M3.5 15.2h1.9M9 15.2h6.7" fill="none" stroke="currentColor" stroke-width="1.8" stroke-linecap="round"></path>
</symbol>
<symbol id="icon-card-arrow" viewBox="0 0 24 24">
<path d="M5 12h12.2" fill="none" stroke="currentColor" stroke-width="2" stroke-linecap="round"></path>
<path d="m13 7.2 4.8 4.8-4.8 4.8" fill="none" stroke="currentColor" stroke-width="2" stroke-linecap="round" stroke-linejoin="round"></path>
<path d="M18.8 5.8v12.4" fill="none" stroke="currentColor" stroke-width="1.4" stroke-linecap="round" opacity=".28"></path>
</symbol>
<symbol id="icon-whatsapp" viewBox="4.6 4.6 17 15.3">
<path d="M13.5 19.0001C16.6157 18.9994 19.3559 16.9396 20.2224 13.9468C21.0889 10.954 19.873 7.74874 17.2396 6.0836C14.6062 4.41845 11.1892 4.69428 8.85695 6.76026C6.52471 8.82624 5.8387 12.185 7.174 15.0001L5.5 19.0001L9.892 18.0001C10.9809 18.6564 12.2286 19.0022 13.5 19.0001Z" fill="none" stroke="currentColor" stroke-width="1.5" stroke-linecap="round" stroke-linejoin="round"></path>
<path d="M11.541 11.0661C10.9717 11.0611 10.5137 10.5965 10.517 10.0271C10.5203 9.45781 10.9836 8.99849 11.5529 9.00013C12.1223 9.00177 12.5829 9.46375 12.583 10.0331C12.5802 10.606 12.1139 11.0683 11.541 11.0661Z" fill="none" stroke="currentColor" stroke-width="1.5" stroke-linecap="round" stroke-linejoin="round"></path>
<path d="M14.417 13.918C14.4138 14.3397 14.6652 14.7217 15.0538 14.8854C15.4424 15.0491 15.8914 14.9622 16.1909 14.6653C16.4904 14.3684 16.5811 13.9202 16.4208 13.5302C16.2605 13.1402 15.8807 12.8854 15.459 12.885C14.8861 12.8828 14.4198 13.3451 14.417 13.918Z" fill="none" stroke="currentColor" stroke-width="1.5" stroke-linecap="round" stroke-linejoin="round"></path>
<path d="M10.5 10.0331C10.486 13.5001 13.8 15.3301 15.459 14.9511" fill="none" stroke="currentColor" stroke-width="1.5" stroke-linecap="round"></path>
</symbol>
<symbol id="icon-telegram" viewBox="0 0 24 24">
<path d="M23.1117 4.49449C23.4296 2.94472 21.9074 1.65683 20.4317 2.227L2.3425 9.21601C0.694517 9.85273 0.621087 12.1572 2.22518 12.8975L6.1645 14.7157L8.03849 21.2746C8.13583 21.6153 8.40618 21.8791 8.74917 21.968C9.09216 22.0568 9.45658 21.9576 9.70712 21.707L12.5938 18.8203L16.6375 21.8531C17.8113 22.7334 19.5019 22.0922 19.7967 20.6549L23.1117 4.49449ZM3.0633 11.0816L21.1525 4.0926L17.8375 20.2531L13.1 16.6999C12.7019 16.4013 12.1448 16.4409 11.7929 16.7928L10.5565 18.0292L10.928 15.9861L18.2071 8.70703C18.5614 8.35278 18.5988 7.79106 18.2947 7.39293C17.9906 6.99479 17.4389 6.88312 17.0039 7.13168L6.95124 12.876L3.0633 11.0816ZM8.17695 14.4791L8.78333 16.6015L9.01614 15.321C9.05253 15.1209 9.14908 14.9366 9.29291 14.7928L11.5128 12.573L8.17695 14.4791Z" fill="currentColor"></path>
</symbol>
<symbol id="icon-phone" viewBox="0 0 24 24">
<path d="M8.5 4.5 10.2 8c.3.7.2 1.4-.4 1.9l-1 1c1.2 2.2 3 4 5.3 5.3l1-1c.5-.5 1.3-.7 1.9-.4l3.5 1.7c.7.3 1.1 1 1 1.8l-.4 2c-.2.9-1 1.6-1.9 1.6C10.3 21.9 2.1 13.7 2.1 4.8c0-.9.7-1.7 1.6-1.9l2-.4c.8-.1 1.5.3 1.8 1Z" fill="none" stroke="currentColor" stroke-width="1.8" stroke-linecap="round" stroke-linejoin="round"></path>
</symbol>
<symbol id="icon-mail" viewBox="0 0 24 24">
<path d="M4.5 6.5h15a2 2 0 0 1 2 2v9a2 2 0 0 1-2 2h-15a2 2 0 0 1-2-2v-9a2 2 0 0 1 2-2Z" fill="none" stroke="currentColor" stroke-width="1.8" stroke-linejoin="round"></path>
<path d="m4 8 8 6 8-6" fill="none" stroke="currentColor" stroke-width="1.8" stroke-linecap="round" stroke-linejoin="round"></path>
</symbol>
<symbol id="icon-user" viewBox="0 0 24 24">
<path d="M12 12.2a4.2 4.2 0 1 0 0-8.4 4.2 4.2 0 0 0 0 8.4Z" fill="none" stroke="currentColor" stroke-width="1.8" stroke-linecap="round" stroke-linejoin="round"></path>
<path d="M4.8 20.2c.8-3.6 3.4-5.5 7.2-5.5s6.4 1.9 7.2 5.5" fill="none" stroke="currentColor" stroke-width="1.8" stroke-linecap="round" stroke-linejoin="round"></path>
</symbol>
</defs>
</svg>
