<svg aria-hidden="true" style="position: absolute; width: 0; height: 0; overflow: hidden;" version="1.1" xmlns="http://www.w3.org/2000/svg" xmlns:xlink="http://www.w3.org/1999/xlink">
<defs>
<symbol id="logo" viewBox="0 3.25 26 32">

<path fill="#0d7d4b" style="fill: var(--color2, #0d7d4b)" d="M16.225 8.395c1.809-0.054 3.645 0.009 5.456-0.016 0.631-0.009 1.098 0.104 1.508 0.6 0.455 0.551 0.522 1.066 0.51 1.759-0.013 0.746 0.021 1.5-0.049 2.242-0.098 1.153-0.526 2.253-1.231 3.17-1.676 2.177-3.576 2.145-5.997 2.242-1.039 0.042-2.615 0.874-3.42 1.542-0.057-0.528-0.035-1.078-0.023-1.597-0.002-1.995 1.45-3.838 3.39-4.3 1.371-0.327 1.703 0.084 1.727-1.689-0.382-0.001-0.763 0.033-1.139 0.102-1.879 0.339-3.397 1.304-4.488 2.873-1.045 1.503-1.13 2.981-1.132 4.732l0.006 2.553-0.020 7.275c-0.893-0.275-1.531-0.595-2.226-1.22-1.325-1.197-2.237-2.941-2.265-4.744-0.029-1.829 0.004-3.653-0.009-5.482-0.004-0.551-0.010-1.127 0.036-1.675 0.186-2.019 1.039-3.919 2.425-5.4 1.349-1.463 3.177-2.419 5.13-2.805 0.573-0.113 1.233-0.139 1.813-0.163z"></path>
<path fill="#f88430" style="fill: var(--color3, #f88430)" d="M23.524 17.292c0.058 0.103 0.003 0.815-0.010 0.982-0.055 0.688-0.161 1.351-0.368 2.009-0.636 2.018-2.278 3.732-4.356 4.25-0.728 0.181-1.181 0.138-1.91 0.194-1.043 0.081-2.211 0.491-3.094 1.053-0.302 0.192-0.646 0.493-0.922 0.726l-0.041-0.050c-0.040-0.337-0.006-0.715-0.012-1.055-0.031-1.682 0.057-2.982 1.301-4.26 0.45-0.472 0.99-0.849 1.588-1.11 1.744-0.763 2.895-0.226 4.686-0.817 0.833-0.271 1.611-0.689 2.295-1.236 0.288-0.226 0.545-0.472 0.844-0.686z"></path>
<path fill="#c7d2cb" style="fill: var(--color4, #c7d2cb)" d="M23.489 23.080l0.035 0.052c-0.208 3.582-2.744 6.475-6.336 6.939-0.662 0.086-1.387 0.057-2.057 0.057-0.709 0.004-1.419 0.001-2.128-0.008l-0.035-0.059c-0.023-0.571 0.213-1.178 0.489-1.664 0.386-0.681 0.659-0.97 1.286-1.389 1.195-0.798 2.072-0.676 3.394-0.8 0.514-0.048 1.022-0.148 1.516-0.297 1.358-0.413 3.171-1.584 3.836-2.83z"></path>
</symbol>
</defs>
</svg>
