<svg xmlns="http://www.w3.org/2000/svg" viewBox="0 0 64 64">
  
  <svg x="8" y="4" width="56" height="56" viewBox="6 7.6 18.2 22.9" preserveAspectRatio="xMidYMid meet">
    <path fill="#0D7D4B" d="M16.225 8.395c1.809-.054 3.645.009 5.456-.016.631-.009 1.098.104 1.508.6.455.551.522 1.066.51 1.759-.013.746.021 1.5-.049 2.242-.098 1.153-.526 2.253-1.231 3.17-1.676 2.177-3.576 2.145-5.997 2.242-1.039.042-2.615.874-3.42 1.542-.057-.528-.035-1.078-.023-1.597-.002-1.995 1.45-3.838 3.39-4.3 1.371-.327 1.703.084 1.727-1.689-.382-.001-.763.033-1.139.102-1.879.339-3.397 1.304-4.488 2.873-1.045 1.503-1.13 2.981-1.132 4.732l.006 2.553-.02 7.275c-.893-.275-1.531-.595-2.226-1.22-1.325-1.197-2.237-2.941-2.265-4.744-.029-1.829.004-3.653-.009-5.482-.004-.551-.01-1.127.036-1.675.186-2.019 1.039-3.919 2.425-5.4 1.349-1.463 3.177-2.419 5.13-2.805.573-.113 1.233-.139 1.813-.163Z" />
    <path fill="#F88430" d="M23.524 17.292c.058.103.003.815-.01.982-.055.688-.161 1.351-.368 2.009-.636 2.018-2.278 3.732-4.356 4.25-.728.181-1.181.138-1.91.194-1.043.081-2.211.491-3.094 1.053-.302.192-.646.493-.922.726l-.041-.05c-.04-.337-.006-.715-.012-1.055-.031-1.682.057-2.982 1.301-4.26.45-.472.99-.849 1.588-1.11 1.744-.763 2.895-.226 4.686-.817.833-.271 1.611-.689 2.295-1.236.288-.226.545-.472.844-.686Z" />
    <path fill="#C7D2CB" d="m23.489 23.08.035.052c-.208 3.582-2.744 6.475-6.336 6.939-.662.086-1.387.057-2.057.057-.709.004-1.419.001-2.128-.008l-.035-.059c-.023-.571.213-1.178.489-1.664.386-.681.659-.97 1.286-1.389 1.195-.798 2.072-.676 3.394-.8.514-.048 1.022-.148 1.516-.297 1.358-.413 3.171-1.584 3.836-2.83Z" />
  </svg>
</svg>
